<svg version="1.1" viewBox="0.0 0.0 192.0 96.0" fill="none" stroke="none" stroke-linecap="square" stroke-miterlimit="10" xmlns:xlink="http://www.w3.org/1999/xlink" xmlns="http://www.w3.org/2000/svg"><clipPath id="p.0"><path d="m0 0l192.0 0l0 96.0l-192.0 0l0 -96.0z" clip-rule="nonzero"/></clipPath><g clip-path="url(#p.0)"><path fill="#000000" fill-opacity="0.0" d="m0 0l192.0 0l0 96.0l-192.0 0z" fill-rule="evenodd"/><path fill="#000000" fill-opacity="0.0" d="m0 16.186352l192.0 0l0 70.3622l-192.0 0z" fill-rule="evenodd"/><path fill="#434343" d="m83.90043 62.7826q0 3.84375 -0.953125 6.890625q-0.9375 3.03125 -2.78125 5.125q-1.828125 2.09375 -4.515625 3.21875q-2.6875 1.125 -6.171875 1.125q-3.109375 0 -6.46875 -0.90625q0.0625 -0.921875 0.15625 -1.828125q0.09375 -0.921875 0.1875 -1.8125q0.078125 -0.546875 0.40625 -0.875q0.34375 -0.34375 1.015625 -0.34375q0.5625 0 1.515625 0.296875q0.96875 0.28125 2.578125 0.28125q2.109375 0 3.75 -0.640625q1.65625 -0.640625 2.78125 -1.984375q1.140625 -1.34375 1.734375 -3.4375q0.59375 -2.09375 0.59375 -4.984375l0 -30.140625l6.171875 0l0 30.015625zm11.166061 15.84375l0 -45.859375l14.625 0q4.234375 0 7.28125 0.84375q3.0625 0.828125 5.03125 2.359375q1.96875 1.53125 2.90625 3.765625q0.953125 2.21875 0.953125 5.0q0 1.703125 -0.53125 3.265625q-0.53125 1.5625 -1.609375 2.90625q-1.0625 1.34375 -2.6875 2.40625q-1.609375 1.0625 -3.78125 1.734375q5.015625 0.984375 7.578125 3.609375q2.5625 2.625 2.5625 6.90625q0 2.921875 -1.078125 5.328125q-1.0625 2.390625 -3.140625 4.125q-2.0625 1.71875 -5.0625 2.671875q-2.984375 0.9375 -6.8125 0.9375l-16.234375 0zm6.21875 -20.890625l0 15.96875l9.921875 0q2.65625 0 4.546875 -0.609375q1.90625 -0.609375 3.140625 -1.71875q1.234375 -1.109375 1.8125 -2.625q0.578125 -1.515625 0.578125 -3.34375q0 -3.546875 -2.515625 -5.609375q-2.515625 -2.0625 -7.609375 -2.0625l-9.875 0zm0 -4.421875l8.1875 0q2.625 0 4.546875 -0.578125q1.921875 -0.578125 3.171875 -1.59375q1.265625 -1.03125 1.875 -2.484375q0.609375 -1.453125 0.609375 -3.1875q0 -4.03125 -2.4375 -5.90625q-2.421875 -1.890625 -7.546875 -1.890625l-8.40625 0l0 15.640625z" fill-rule="nonzero"/></g></svg>