<svg version="1.1" viewBox="0.0 0.0 192.0 96.0" fill="none" stroke="none" stroke-linecap="square" stroke-miterlimit="10" xmlns:xlink="http://www.w3.org/1999/xlink" xmlns="http://www.w3.org/2000/svg"><clipPath id="p.0"><path d="m0 0l192.0 0l0 96.0l-192.0 0l0 -96.0z" clip-rule="nonzero"/></clipPath><g clip-path="url(#p.0)"><path fill="#000000" fill-opacity="0.0" d="m0 0l192.0 0l0 96.0l-192.0 0z" fill-rule="evenodd"/><path fill="#000000" fill-opacity="0.0" d="m0 28.856173l192.0 0l0 49.354332l-192.0 0z" fill-rule="evenodd"/><path fill="#000000" d="m33.9375 68.25617l-8.75 0l0 -28.59375q5.78125 -0.28125 8.09375 -0.28125q4.453125 0 6.96875 1.90625q2.515625 1.90625 2.515625 5.4375q0 3.40625 -3.59375 5.375q5.328125 1.859375 5.328125 7.65625q0 3.90625 -2.953125 6.203125q-2.953125 2.296875 -7.609375 2.296875zm-3.671875 -24.53125l0 6.859375q1.171875 0.078125 2.453125 0.078125q4.96875 0 4.96875 -3.734375q0 -3.296875 -4.515625 -3.296875q-1.1875 0 -2.90625 0.09375zm0 10.8125l0 9.453125q1.53125 0.140625 2.5 0.140625q3.390625 0 4.921875 -1.140625q1.53125 -1.15625 1.53125 -3.84375q0 -2.4375 -1.421875 -3.546875q-1.421875 -1.109375 -4.984375 -1.109375q-0.734375 0 -2.546875 0.046875zm35.41797 13.71875l-2.078125 -5.796875l-9.8125 0l-1.984375 5.796875l-5.65625 0l11.40625 -29.0l2.234375 0l11.5 29.0l-5.609375 0zm-7.0 -20.25l-3.4375 10.5625l6.875 0l-3.4375 -10.5625zm24.394531 20.25l-8.75 0l0 -28.59375q5.78125 -0.28125 8.09375 -0.28125q4.453125 0 6.96875 1.90625q2.515625 1.90625 2.515625 5.4375q0 3.40625 -3.59375 5.375q5.328125 1.859375 5.328125 7.65625q0 3.90625 -2.953125 6.203125q-2.953125 2.296875 -7.609375 2.296875zm-3.671875 -24.53125l0 6.859375q1.171875 0.078125 2.453125 0.078125q4.96875 0 4.96875 -3.734375q0 -3.296875 -4.515625 -3.296875q-1.1875 0 -2.90625 0.09375zm0 10.8125l0 9.453125q1.53125 0.140625 2.5 0.140625q3.390625 0 4.921875 -1.140625q1.53125 -1.15625 1.53125 -3.84375q0 -2.4375 -1.421875 -3.546875q-1.421875 -1.109375 -4.984375 -1.109375q-0.734375 0 -2.546875 0.046875zm30.621094 1.984375l0 11.734375l-5.078125 0l0 -11.734375l-9.65625 -16.875l5.390625 0l6.78125 12.203125l6.796875 -12.203125l5.375 0l-9.609375 16.875zm29.328125 11.734375l-2.078125 -5.796875l-9.8125 0l-1.984375 5.796875l-5.65625 0l11.40625 -29.0l2.234375 0l11.5 29.0l-5.609375 0zm-7.0 -20.25l-3.4375 10.5625l6.875 0l-3.4375 -10.5625zm31.863281 20.25l-7.96875 -12.1875l-3.171875 4.359375l0 7.828125l-5.078125 0l0 -28.609375l5.078125 0l0 13.6875l9.71875 -13.6875l5.78125 0l-8.96875 12.5l10.6875 16.109375l-6.078125 0z" fill-rule="nonzero"/></g></svg>