<svg version="1.1" viewBox="0.0 0.0 192.0 96.0" fill="none" stroke="none" stroke-linecap="square" stroke-miterlimit="10" xmlns:xlink="http://www.w3.org/1999/xlink" xmlns="http://www.w3.org/2000/svg"><clipPath id="p.0"><path d="m0 0l192.0 0l0 96.0l-192.0 0l0 -96.0z" clip-rule="nonzero"/></clipPath><g clip-path="url(#p.0)"><path fill="#000000" fill-opacity="0.0" d="m0 0l192.0 0l0 96.0l-192.0 0z" fill-rule="evenodd"/><path fill="#000000" fill-opacity="0.0" d="m0 28.855553l192.0 0l0 57.70079l-192.0 0z" fill-rule="evenodd"/><path fill="#434343" d="m86.92545 64.060555q0 2.875 -0.703125 5.15625q-0.703125 2.28125 -2.09375 3.859375q-1.375 1.5625 -3.390625 2.40625q-2.015625 0.84375 -4.640625 0.84375q-2.328125 0 -4.84375 -0.671875q0.046875 -0.703125 0.109375 -1.390625q0.078125 -0.6875 0.15625 -1.359375q0.046875 -0.40625 0.296875 -0.65625q0.25 -0.25 0.765625 -0.25q0.421875 0 1.140625 0.21875q0.71875 0.21875 1.921875 0.21875q1.59375 0 2.828125 -0.484375q1.234375 -0.484375 2.078125 -1.484375q0.859375 -1.015625 1.296875 -2.578125q0.453125 -1.578125 0.453125 -3.734375l0 -22.609379l4.625 0l0 22.515629zm8.374435 11.875l0 -34.39063l10.96875 0q3.171875 0 5.453125 0.625q2.296875 0.625 3.765625 1.78125q1.484375 1.140625 2.1875 2.8125q0.71875 1.671875 0.71875 3.75q0 1.28125 -0.40625 2.453125q-0.390625 1.171875 -1.203125 2.1875q-0.796875 1.0 -2.015625 1.796875q-1.203125 0.796875 -2.828125 1.296875q3.765625 0.75 5.6875 2.71875q1.921875 1.953125 1.921875 5.171879q0 2.1875 -0.8125 3.984375q-0.796875 1.796875 -2.34375 3.09375q-1.546875 1.296875 -3.796875 2.015625q-2.25 0.703125 -5.125 0.703125l-12.171875 0zm4.65625 -15.671879l0 11.968754l7.4375 0q2.0 0 3.421875 -0.453125q1.4375 -0.453125 2.359375 -1.28125q0.921875 -0.828125 1.34375 -1.96875q0.4375 -1.140625 0.4375 -2.5q0 -2.6718788 -1.890625 -4.218754q-1.875 -1.546875 -5.6875 -1.546875l-7.421875 0zm0 -3.3125l6.140625 0q1.96875 0 3.40625 -0.421875q1.453125 -0.4375 2.390625 -1.203125q0.953125 -0.78125 1.40625 -1.859375q0.453125 -1.09375 0.453125 -2.390625q0 -3.03125 -1.828125 -4.4375q-1.8125 -1.421875 -5.65625 -1.421875l-6.3125 0l0 11.734375z" fill-rule="nonzero"/></g></svg>